HIERARCHY
ROOT Hips
{
  OFFSET 0.000 82.102 0.000
  CHANNELS 6 Xposition Yposition Zposition Zrotation Xrotation Yrotation
  JOINT LeftUpLeg
  {
    OFFSET 8.703 1.718 2.699
    CHANNELS 6 Xposition Yposition Zposition Zrotation Xrotation Yrotation
    JOINT LeftLeg
    {
      OFFSET 0.000 -45.940 0.000
      CHANNELS 6 Xposition Yposition Zposition Zrotation Xrotation Yrotation
      JOINT LeftFoot
      {
        OFFSET 0.000 -37.880 0.000
        CHANNELS 6 Xposition Yposition Zposition Zrotation Xrotation Yrotation
        End Site
        {
          OFFSET 0.000 0.000 12.475
        }
      }
    }
  }
  JOINT RightUpLeg
  {
    OFFSET -8.703 1.718 2.699
    CHANNELS 6 Xposition Yposition Zposition Zrotation Xrotation Yrotation
    JOINT RightLeg
    {
      OFFSET 0.000 -45.940 0.000
      CHANNELS 6 Xposition Yposition Zposition Zrotation Xrotation Yrotation
      JOINT RightFoot
      {
        OFFSET 0.000 -37.880 0.000
        CHANNELS 6 Xposition Yposition Zposition Zrotation Xrotation Yrotation
        End Site
        {
          OFFSET 0.000 0.000 12.475
        }
      }
    }
  }
  JOINT Spine
  {
    OFFSET 0.000 26.981 0.000
    CHANNELS 6 Xposition Yposition Zposition Zrotation Xrotation Yrotation
    JOINT Spine1
    {
      OFFSET 0.000 20.235 0.000
      CHANNELS 6 Xposition Yposition Zposition Zrotation Xrotation Yrotation
      JOINT LeftShoulder
      {
        OFFSET 1.574 -0.293 -0.028
        CHANNELS 6 Xposition Yposition Zposition Zrotation Xrotation Yrotation
        JOINT LeftArm
        {
          OFFSET 14.617 0.000 0.000
          CHANNELS 6 Xposition Yposition Zposition Zrotation Xrotation Yrotation
          JOINT LeftForeArm
          {
            OFFSET 27.418 0.000 0.000
            CHANNELS 6 Xposition Yposition Zposition Zrotation Xrotation Yrotation
            JOINT LeftHand
            {
              OFFSET 25.099 0.000 0.000
              CHANNELS 6 Xposition Yposition Zposition Zrotation Xrotation Yrotation
              JOINT LeftHandThumb1
              {
                OFFSET 4.877 -1.044 3.608
                CHANNELS 6 Xposition Yposition Zposition Zrotation Xrotation Yrotation
                JOINT LeftHandThumb2
                {
                  OFFSET 2.665 -0.000 -0.000
                  CHANNELS 6 Xposition Yposition Zposition Zrotation Xrotation Yrotation
                  JOINT LeftHandThumb3
                  {
                    OFFSET 2.543 -0.000 0.000
                    CHANNELS 6 Xposition Yposition Zposition Zrotation Xrotation Yrotation
                    End Site
                    {
                      OFFSET 2.667 0.000 0.000
                    }
                  }
                }
              }
              JOINT LeftHandIndex1
              {
                OFFSET 9.232 -0.301 2.144
                CHANNELS 6 Xposition Yposition Zposition Zrotation Xrotation Yrotation
                JOINT LeftHandIndex2
                {
                  OFFSET 4.225 -0.000 -0.000
                  CHANNELS 6 Xposition Yposition Zposition Zrotation Xrotation Yrotation
                  JOINT LeftHandIndex3
                  {
                    OFFSET 2.654 0.000 0.000
                    CHANNELS 6 Xposition Yposition Zposition Zrotation Xrotation Yrotation
                    End Site
                    {
                      OFFSET 1.958 -0.000 -0.000
                    }
                  }
                }
              }
              JOINT LeftHandMiddle1
              {
                OFFSET 8.920 0.000 0.000
                CHANNELS 6 Xposition Yposition Zposition Zrotation Xrotation Yrotation
                JOINT LeftHandMiddle2
                {
                  OFFSET 4.863 -0.000 -0.000
                  CHANNELS 6 Xposition Yposition Zposition Zrotation Xrotation Yrotation
                  JOINT LeftHandMiddle3
                  {
                    OFFSET 2.765 -0.000 0.000
                    CHANNELS 6 Xposition Yposition Zposition Zrotation Xrotation Yrotation
                    End Site
                    {
                      OFFSET 2.006 0.000 -0.000
                    }
                  }
                }
              }
              JOINT LeftHandRing1
              {
                OFFSET 8.689 -0.126 -2.087
                CHANNELS 6 Xposition Yposition Zposition Zrotation Xrotation Yrotation
                JOINT LeftHandRing2
                {
                  OFFSET 4.538 0.000 0.000
                  CHANNELS 6 Xposition Yposition Zposition Zrotation Xrotation Yrotation
                  JOINT LeftHandRing3
                  {
                    OFFSET 2.305 -0.000 0.000
                    CHANNELS 6 Xposition Yposition Zposition Zrotation Xrotation Yrotation
                    End Site
                    {
                      OFFSET 1.923 0.000 0.000
                    }
                  }
                }
              }
              JOINT LeftHandPinky1
              {
                OFFSET 8.391 -0.817 -3.758
                CHANNELS 6 Xposition Yposition Zposition Zrotation Xrotation Yrotation
                JOINT LeftHandPinky2
                {
                  OFFSET 3.044 0.000 -0.000
                  CHANNELS 6 Xposition Yposition Zposition Zrotation Xrotation Yrotation
                  JOINT LeftHandPinky3
                  {
                    OFFSET 1.975 0.000 0.000
                    CHANNELS 6 Xposition Yposition Zposition Zrotation Xrotation Yrotation
                    End Site
                    {
                      OFFSET 1.667 0.000 0.000
                    }
                  }
                }
              }
            }
          }
        }
      }
      JOINT RightShoulder
      {
        OFFSET -1.574 -0.293 -0.028
        CHANNELS 6 Xposition Yposition Zposition Zrotation Xrotation Yrotation
        JOINT RightArm
        {
          OFFSET -14.617 0.000 0.000
          CHANNELS 6 Xposition Yposition Zposition Zrotation Xrotation Yrotation
          JOINT RightForeArm
          {
            OFFSET -27.418 0.000 0.000
            CHANNELS 6 Xposition Yposition Zposition Zrotation Xrotation Yrotation
            JOINT RightHand
            {
              OFFSET -25.099 0.000 0.000
              CHANNELS 6 Xposition Yposition Zposition Zrotation Xrotation Yrotation
              JOINT RightHandThumb1
              {
                OFFSET -4.877 -1.044 3.608
                CHANNELS 6 Xposition Yposition Zposition Zrotation Xrotation Yrotation
                JOINT RightHandThumb2
                {
                  OFFSET -2.665 -0.000 0.000
                  CHANNELS 6 Xposition Yposition Zposition Zrotation Xrotation Yrotation
                  JOINT RightHandThumb3
                  {
                    OFFSET -2.543 -0.000 -0.000
                    CHANNELS 6 Xposition Yposition Zposition Zrotation Xrotation Yrotation
                    End Site
                    {
                      OFFSET -2.667 0.000 -0.000
                    }
                  }
                }
              }
              JOINT RightHandIndex1
              {
                OFFSET -9.232 -0.301 2.144
                CHANNELS 6 Xposition Yposition Zposition Zrotation Xrotation Yrotation
                JOINT RightHandIndex2
                {
                  OFFSET -4.225 0.000 0.000
                  CHANNELS 6 Xposition Yposition Zposition Zrotation Xrotation Yrotation
                  JOINT RightHandIndex3
                  {
                    OFFSET -2.654 -0.000 -0.000
                    CHANNELS 6 Xposition Yposition Zposition Zrotation Xrotation Yrotation
                    End Site
                    {
                      OFFSET -1.958 0.000 0.000
                    }
                  }
                }
              }
              JOINT RightHandMiddle1
              {
                OFFSET -8.920 0.000 0.000
                CHANNELS 6 Xposition Yposition Zposition Zrotation Xrotation Yrotation
                JOINT RightHandMiddle2
                {
                  OFFSET -4.863 -0.000 -0.000
                  CHANNELS 6 Xposition Yposition Zposition Zrotation Xrotation Yrotation
                  JOINT RightHandMiddle3
                  {
                    OFFSET -2.765 -0.000 0.000
                    CHANNELS 6 Xposition Yposition Zposition Zrotation Xrotation Yrotation
                    End Site
                    {
                      OFFSET -2.006 0.000 -0.000
                    }
                  }
                }
              }
              JOINT RightHandRing1
              {
                OFFSET -8.689 -0.126 -2.087
                CHANNELS 6 Xposition Yposition Zposition Zrotation Xrotation Yrotation
                JOINT RightHandRing2
                {
                  OFFSET -4.538 0.000 0.000
                  CHANNELS 6 Xposition Yposition Zposition Zrotation Xrotation Yrotation
                  JOINT RightHandRing3
                  {
                    OFFSET -2.305 -0.000 0.000
                    CHANNELS 6 Xposition Yposition Zposition Zrotation Xrotation Yrotation
                    End Site
                    {
                      OFFSET -1.923 0.000 0.000
                    }
                  }
                }
              }
              JOINT RightHandPinky1
              {
                OFFSET -8.391 -0.817 -3.758
                CHANNELS 6 Xposition Yposition Zposition Zrotation Xrotation Yrotation
                JOINT RightHandPinky2
                {
                  OFFSET -3.044 0.000 0.000
                  CHANNELS 6 Xposition Yposition Zposition Zrotation Xrotation Yrotation
                  JOINT RightHandPinky3
                  {
                    OFFSET -1.975 0.000 0.000
                    CHANNELS 6 Xposition Yposition Zposition Zrotation Xrotation Yrotation
                    End Site
                    {
                      OFFSET -1.667 0.000 -0.000
                    }
                  }
                }
              }
            }
          }
        }
      }
      JOINT Neck
      {
        OFFSET 0.000 0.713 0.000
        CHANNELS 6 Xposition Yposition Zposition Zrotation Xrotation Yrotation
        JOINT Head
        {
          OFFSET 0.000 6.394 0.000
          CHANNELS 6 Xposition Yposition Zposition Zrotation Xrotation Yrotation
          End Site
          {
            OFFSET 0.000 15.180 0.000
          }
        }
      }
    }
  }
}
MOTION
Frames:	4
Frame Time:	0.033333
-40.32328 11.89681 -205.63298 -50.43246 30.89155 19.53555 8.26280 0.31357 1.58715 -155.95358 -51.41756 117.64072 -0.30885 -26.59971 1.77813 -116.21710 -21.06315 56.18258 -0.00370 -26.22302 -0.04134 -1.24598 18.46306 4.10675 -10.96224 5.22040 1.59375 -120.87720 -54.52972 -149.37596 -1.99676 -32.36862 5.65773 -92.39841 45.18908 117.26151 0.29176 -40.39242 -0.08890 -8.08232 -3.04755 34.04803 -0.05403 23.58065 -0.04476 1.09490 1.46189 6.94748 0.00190 18.09405 0.05657 3.97537 0.72286 6.96559 2.96118 0.32580 -0.60160 5.97556 1.21632 11.22767 27.29766 0.02640 -0.04920 136.91505 -14.73102 -18.46569 32.53749 -0.62020 -0.07343 104.44880 -21.96490 -17.94475 21.87864 0.03047 0.08530 -25.85123 5.41217 -7.74583 4.87700 -1.04400 3.60800 -38.84882 -18.17665 4.02960 2.66501 -0.00001 -0.00000 0.00000 0.00000 5.00000 2.54300 -0.00001 0.00000 0.00000 -0.00000 60.00000 9.23200 -0.30100 2.14400 2.00000 0.00000 -0.00000 4.22499 -0.00000 -0.00001 2.00000 0.00000 -0.00000 2.65400 0.00001 0.00001 2.00000 -0.00001 -0.00000 8.91999 0.00001 0.00001 -80.00000 -0.00000 0.00001 4.86300 -0.00001 -0.00000 -90.00000 -0.00000 0.00000 2.76499 -0.00000 0.00000 -69.99999 0.00000 0.00001 8.68899 -0.12600 -2.08700 -80.00000 -0.00000 0.00001 4.53800 0.00001 0.00000 -90.00000 -0.00000 0.00000 2.30500 -0.00001 0.00001 -69.99999 0.00000 0.00001 8.39099 -0.81700 -3.75800 2.00000 0.00000 -0.00000 3.04401 0.00000 -0.00000 2.00000 0.00000 -0.00000 1.97499 0.00000 0.00000 2.00000 -0.00001 -0.00000 -0.78714 0.54667 -0.59009 -22.26745 16.11777 -32.71918 -10.10980 0.37179 -0.17707 108.07052 -21.07755 18.85350 -30.47948 0.07720 -0.02805 34.98084 10.00861 66.54894 -25.87201 0.21452 -0.13966 -19.53213 -14.34236 7.83184 -4.87698 -1.04400 3.60801 37.43620 21.26468 8.20879 -2.66500 -0.00001 0.00000 0.00000 0.00000 -5.00180 -2.54300 -0.00001 -0.00001 0.00001 0.00000 -59.99848 -9.23199 -0.30100 2.14401 79.99796 -0.00000 0.00000 -4.22500 0.00000 0.00001 89.99863 -0.00000 0.00000 -2.65400 -0.00001 -0.00002 69.99865 0.00169 0.00261 -8.91999 0.00000 0.00000 79.99796 -0.00000 0.00000 -4.86299 -0.00001 -0.00001 89.99863 -0.00000 0.00000 -2.76500 -0.00001 0.00000 69.99865 0.00169 0.00261 -8.68899 -0.12600 -2.08700 79.99796 -0.00000 0.00000 -4.53801 0.00001 0.00001 89.99863 -0.00000 0.00000 -2.30500 -0.00001 0.00001 69.99865 0.00169 0.00261 -8.39100 -0.81700 -3.75799 79.99796 -0.00000 0.00000 -3.04401 0.00001 0.00000 89.99863 -0.00000 0.00000 -1.97500 0.00000 0.00001 69.99865 0.00169 0.00261 0.00001 0.64192 -0.00001 0.00001 -0.00004 -0.00001 -0.02691 5.80688 -0.03176 -19.96210 0.52143 5.89154 
-39.91627 13.27128 -205.19273 -50.80587 30.55737 22.74182 8.57348 -0.06975 1.34130 -150.33780 -52.75092 128.18980 -0.33556 -26.40488 1.40551 -113.00280 -16.54874 57.84342 -0.00331 -25.85335 -0.03414 -1.49687 20.89845 4.26249 -11.45730 5.53976 1.43143 -113.61221 -48.95153 -133.43593 -2.14123 -32.90305 4.32935 -90.21248 56.75594 120.63913 0.28789 -40.59164 -0.12059 -21.24235 4.74129 45.89987 -0.04816 23.30853 -0.04395 1.38625 1.49280 5.15017 0.01072 17.96876 0.06340 3.42549 0.88776 5.27971 2.95657 0.35488 -0.62407 6.46221 1.36497 11.64770 27.36349 0.03099 -0.05006 136.56134 -15.01125 -19.05527 32.66533 -0.45759 -0.06747 110.43703 -21.67661 -15.54931 21.73158 0.05863 0.12513 -9.68993 9.45011 -2.03751 4.87700 -1.04400 3.60800 -38.84882 -18.17665 4.02960 2.66501 -0.00001 -0.00000 0.00000 0.00000 5.00000 2.54300 -0.00001 0.00000 0.00000 -0.00000 60.00000 9.23200 -0.30100 2.14400 2.00000 0.00000 -0.00000 4.22499 -0.00000 -0.00001 2.00000 0.00000 -0.00000 2.65400 0.00001 0.00001 2.00000 -0.00001 -0.00000 8.91999 0.00001 0.00001 -80.00000 -0.00000 0.00001 4.86300 -0.00001 -0.00000 -90.00000 -0.00000 0.00000 2.76499 -0.00000 0.00000 -69.99999 0.00000 0.00001 8.68899 -0.12600 -2.08700 -80.00000 -0.00000 0.00001 4.53800 0.00001 0.00000 -90.00000 -0.00000 0.00000 2.30500 -0.00001 0.00001 -69.99999 0.00000 0.00001 8.39099 -0.81700 -3.75800 2.00000 0.00000 -0.00000 3.04401 0.00000 -0.00000 2.00000 0.00000 -0.00000 1.97499 0.00000 0.00000 2.00000 -0.00001 -0.00000 -0.74351 0.59127 -0.61339 -23.81733 18.81456 -34.86008 -10.19948 0.35146 -0.17672 111.54375 -16.88136 19.55421 -30.62053 0.03373 -0.01721 33.05121 8.57226 66.81056 -26.67772 0.19114 -0.09831 -16.16282 -14.66208 7.11494 -4.87698 -1.04400 3.60801 37.43625 21.26473 8.20875 -2.66500 -0.00001 0.00000 0.00000 0.00000 -5.00175 -2.54300 -0.00001 -0.00001 0.00001 0.00000 -59.99852 -9.23199 -0.30100 2.14401 79.99802 -0.00000 0.00000 -4.22500 0.00000 0.00001 89.99867 -0.00000 0.00000 -2.65400 -0.00001 -0.00002 69.99869 0.00164 0.00258 -8.91999 0.00000 0.00000 79.99802 -0.00000 0.00000 -4.86299 -0.00001 -0.00001 89.99867 -0.00000 0.00000 -2.76500 -0.00001 0.00000 69.99869 0.00164 0.00258 -8.68899 -0.12600 -2.08700 79.99802 -0.00000 0.00000 -4.53801 0.00001 0.00001 89.99867 -0.00000 0.00000 -2.30500 -0.00001 0.00001 69.99869 0.00164 0.00258 -8.39100 -0.81700 -3.75799 79.99802 -0.00000 0.00000 -3.04401 0.00001 0.00000 89.99867 -0.00000 0.00000 -1.97500 0.00000 0.00001 69.99869 0.00164 0.00258 0.00001 0.63288 -0.00001 0.00001 -0.00004 -0.00001 -0.02534 5.72535 -0.03082 -19.69464 0.31188 6.65167 
-39.65259 14.27063 -204.89774 -51.01554 30.22480 26.03532 8.89770 -0.39031 1.15715 -144.61497 -52.91897 138.33311 -0.34247 -26.48720 1.08056 -110.78142 -12.55161 59.41693 -0.00270 -25.57229 -0.02702 -1.38236 20.85187 4.26224 -11.99026 5.78245 1.34677 -109.57711 -43.51005 -115.18651 -1.96554 -33.38320 3.51764 -87.39175 72.33807 124.15598 0.27427 -40.80314 -0.13238 -31.99389 8.53252 55.51306 -0.04387 23.17978 -0.04248 1.62486 1.43215 3.37606 0.01199 17.91200 0.06509 3.03576 0.94179 3.57794 2.95605 0.38060 -0.63852 6.90308 1.48629 11.90993 27.42101 0.03677 -0.04977 135.32616 -15.25736 -18.97271 32.74852 -0.34238 -0.04806 113.87061 -22.24529 -15.21513 21.82685 0.11723 0.07271 -10.44102 14.36470 -2.99010 4.87700 -1.04400 3.60800 -38.84882 -18.17665 4.02960 2.66501 -0.00001 -0.00000 0.00000 0.00000 5.00000 2.54300 -0.00001 0.00000 0.00000 -0.00000 60.00000 9.23200 -0.30100 2.14400 2.00000 0.00000 -0.00000 4.22499 -0.00000 -0.00001 2.00000 0.00000 -0.00000 2.65400 0.00001 0.00001 2.00000 -0.00001 -0.00000 8.91999 0.00001 0.00001 -80.00000 -0.00000 0.00001 4.86300 -0.00001 -0.00000 -90.00000 -0.00000 0.00000 2.76499 -0.00000 0.00000 -69.99999 0.00000 0.00001 8.68899 -0.12600 -2.08700 -80.00000 -0.00000 0.00001 4.53800 0.00001 0.00000 -90.00000 -0.00000 0.00000 2.30500 -0.00001 0.00001 -69.99999 0.00000 0.00001 8.39099 -0.81700 -3.75800 2.00000 0.00000 -0.00000 3.04401 0.00000 -0.00000 2.00000 0.00000 -0.00000 1.97499 0.00000 0.00000 2.00000 -0.00001 -0.00000 -0.72299 0.58108 -0.62637 -23.63218 19.52208 -36.35594 -10.14789 0.24328 -0.14613 112.52832 -15.06421 20.30245 -30.63315 0.01807 -0.01902 32.61695 8.18677 67.54082 -27.73280 0.15077 0.07065 -19.06277 -19.40292 5.93189 -4.87698 -1.04400 3.60801 37.43629 21.26477 8.20871 -2.66500 -0.00001 0.00000 0.00000 0.00000 -5.00170 -2.54300 -0.00001 -0.00001 0.00001 0.00000 -59.99856 -9.23199 -0.30100 2.14401 79.99809 -0.00000 0.00000 -4.22500 0.00000 0.00001 89.99872 -0.00000 0.00000 -2.65400 -0.00001 -0.00002 69.99873 0.00160 0.00254 -8.91999 0.00000 0.00000 79.99809 -0.00000 0.00000 -4.86299 -0.00001 -0.00001 89.99872 -0.00000 0.00000 -2.76500 -0.00001 0.00000 69.99873 0.00160 0.00254 -8.68899 -0.12600 -2.08700 79.99809 -0.00000 0.00000 -4.53801 0.00001 0.00001 89.99872 -0.00000 0.00000 -2.30500 -0.00001 0.00001 69.99873 0.00160 0.00254 -8.39100 -0.81700 -3.75799 79.99809 -0.00000 0.00000 -3.04401 0.00001 0.00000 89.99872 -0.00000 0.00000 -1.97500 0.00000 0.00001 69.99873 0.00160 0.00254 0.00001 0.63323 -0.00001 0.00001 -0.00004 -0.00001 -0.02072 5.67688 -0.03005 -19.53400 0.47017 7.41120 
-39.78485 14.64740 -204.51053 -50.97656 29.08944 31.85415 9.47994 -0.66983 1.15960 -135.75111 -50.81023 153.08618 -0.35399 -27.14381 0.86023 -109.03181 -7.82412 61.80411 -0.00192 -25.49925 -0.02054 1.59411 -0.69872 5.95103 -13.28343 5.83694 1.84533 -106.26067 -25.93146 -76.02903 -1.18358 -32.39023 6.01361 84.40381 68.84807 -34.34575 0.32185 -40.95384 -0.05588 -40.22369 8.10369 63.67944 -0.07900 23.40298 -0.07383 2.34177 1.25170 -0.15269 -0.00210 18.02347 0.06259 2.83173 0.30858 0.02561 2.94098 0.42479 -0.71387 7.49605 1.77366 13.14818 27.49165 0.02731 -0.04228 134.27295 -16.57205 -20.09256 32.81662 -0.25298 -0.03962 118.89039 -21.85091 -10.58661 21.65758 0.36002 -0.12823 -8.05057 18.84951 -16.56352 4.87700 -1.04400 3.60800 -38.84882 -18.17665 4.02960 2.66501 -0.00001 -0.00000 0.00000 0.00000 5.00000 2.54300 -0.00001 0.00000 0.00000 -0.00000 60.00000 9.23200 -0.30100 2.14400 2.00000 0.00000 -0.00000 4.22499 -0.00000 -0.00001 2.00000 0.00000 -0.00000 2.65400 0.00001 0.00001 2.00000 -0.00001 -0.00000 8.91999 0.00001 0.00001 -80.00000 -0.00000 0.00001 4.86300 -0.00001 -0.00000 -90.00000 -0.00000 0.00000 2.76499 -0.00000 0.00000 -69.99999 0.00000 0.00001 8.68899 -0.12600 -2.08700 -80.00000 -0.00000 0.00001 4.53800 0.00001 0.00000 -90.00000 -0.00000 0.00000 2.30500 -0.00001 0.00001 -69.99999 0.00000 0.00001 8.39099 -0.81700 -3.75800 2.00000 0.00000 -0.00000 3.04401 0.00000 -0.00000 2.00000 0.00000 -0.00000 1.97499 0.00000 0.00000 2.00000 -0.00001 -0.00000 -0.81782 0.35264 -0.67002 -15.21845 12.56709 -37.93394 -10.22171 -0.22086 -0.08174 101.19904 -13.88738 24.61945 -29.88327 0.00159 -0.11771 31.11783 7.55155 66.97866 -27.18901 0.05137 -0.07136 -68.06126 -43.54566 -27.98925 -4.87698 -1.04400 3.60801 37.43634 21.26481 8.20866 -2.66500 -0.00001 0.00000 0.00000 0.00000 -5.00165 -2.54300 -0.00001 -0.00001 0.00001 0.00000 -59.99861 -9.23199 -0.30100 2.14401 79.99814 -0.00000 0.00000 -4.22500 0.00000 0.00001 89.99876 -0.00000 0.00000 -2.65400 -0.00001 -0.00002 69.99876 0.00155 0.00250 -8.91999 0.00000 0.00000 79.99814 -0.00000 0.00000 -4.86299 -0.00001 -0.00001 89.99876 -0.00000 0.00000 -2.76500 -0.00001 0.00000 69.99876 0.00155 0.00250 -8.68899 -0.12600 -2.08700 79.99814 -0.00000 0.00000 -4.53801 0.00001 0.00001 89.99876 -0.00000 0.00000 -2.30500 -0.00001 0.00001 69.99876 0.00155 0.00250 -8.39100 -0.81700 -3.75799 79.99814 -0.00000 0.00000 -3.04401 0.00001 0.00000 89.99876 -0.00000 0.00000 -1.97500 0.00000 0.00001 69.99876 0.00155 0.00250 0.00001 0.63531 -0.00001 0.00001 -0.00004 -0.00001 -0.01394 5.72937 -0.02968 -19.91630 2.49770 10.93046 
